<svg display='none' xmlns="http://www.w3.org/2000/svg">
  <symbol id='arrow' viewBox="0 0 16 16">
    <path d="M6 12L10 8L6 4" stroke-width="2" stroke-linecap="round" stroke-linejoin="round" />
  </symbol>

  <symbol id="icon" viewBox="0 0 24 24">
      <path d="M9 22H15C20 22 22 20 22 15V9C22 4 20 2 15 2H9C4 2 2 4 2 9V15C2 20 4 22 9 22Z" stroke-width="1.5"
        stroke-linecap="round" stroke-linejoin="round" />
      <path
        d="M16.28 13.61C15.15 14.74 13.53 15.09 12.1 14.64L9.51001 17.22C9.33001 17.41 8.96001 17.53 8.69001 17.49L7.49001 17.33C7.09001 17.28 6.73001 16.9 6.67001 16.51L6.51001 15.31C6.47001 15.05 6.60001 14.68 6.78001 14.49L9.36001 11.91C8.92001 10.48 9.26001 8.86001 10.39 7.73001C12.01 6.11001 14.65 6.11001 16.28 7.73001C17.9 9.34001 17.9 11.98 16.28 13.61Z"
        stroke-width="1.5" stroke-miterlimit="10" stroke-linecap="round" stroke-linejoin="round" />
      <path d="M10.45 16.28L9.59998 15.42" stroke-width="1.5" stroke-miterlimit="10" stroke-linecap="round"
        stroke-linejoin="round" />
      <path d="M13.3945 10.7H13.4035" stroke-width="2" stroke-linecap="round" stroke-linejoin="round" />
  </symbol>

  <symbol id="icon2" viewBox="0 0 24 24">
    <path d="M20.66 7.26c0-.07-.1-.14-.15-.21l-.09-.1a2.5 2.5 0 0 0-.86-.68l-6.4-3a2.7 2.7 0 0 0-2.26 0l-6.4 3a2.6 2.6 0 0 0-.86.68L3.52 7a1 1 0 0 0-.15.2A2.39 2.39 0 0 0 3 8.46v7.06a2.49 2.49 0 0 0 1.46 2.26l6.4 3a2.7 2.7 0 0 0 2.27 0l6.4-3A2.49 2.49 0 0 0 21 15.54V8.46a2.39 2.39 0 0 0-.34-1.2zm-8.95-2.2a.73.73 0 0 1 .58 0l5.33 2.48L12 10.15 6.38 7.54zM5.3 16a.47.47 0 0 1-.3-.43V9.1l6 2.79v6.72zm13.39 0L13 18.61v-6.72l6-2.79v6.44a.48.48 0 0 1-.31.46z"/>
  </symbol>

  <symbol id="icon3" viewBox="0 0 24 24">
    <g>
      <path id="Vector" d="M17 21C17 18.2386 14.7614 16 12 16C9.23858 16 7 18.2386 7 21M17 21H17.8031C18.921 21 19.48 21 19.9074 20.7822C20.2837 20.5905 20.5905 20.2837 20.7822 19.9074C21 19.48 21 18.921 21 17.8031V6.19691C21 5.07899 21 4.5192 20.7822 4.0918C20.5905 3.71547 20.2837 3.40973 19.9074 3.21799C19.4796 3 18.9203 3 17.8002 3H6.2002C5.08009 3 4.51962 3 4.0918 3.21799C3.71547 3.40973 3.40973 3.71547 3.21799 4.0918C3 4.51962 3 5.08009 3 6.2002V17.8002C3 18.9203 3 19.4796 3.21799 19.9074C3.40973 20.2837 3.71547 20.5905 4.0918 20.7822C4.5192 21 5.07899 21 6.19691 21H7M17 21H7M12 13C10.3431 13 9 11.6569 9 10C9 8.34315 10.3431 7 12 7C13.6569 7 15 8.34315 15 10C15 11.6569 13.6569 13 12 13Z" stroke-width="1.5" stroke-linecap="round" stroke-linejoin="round"/>
    </g>
  </symbol>

  <symbol id="icon4" viewBox="0 0 24 24">
    
      <path d="M10.7516 16.8604V18.8904C10.7516 20.6104 9.15158 22.0004 7.18158 22.0004C5.21158 22.0004 3.60156 20.6104 3.60156 18.8904V16.8604C3.60156 18.5804 5.20158 19.8004 7.18158 19.8004C9.15158 19.8004 10.7516 18.5704 10.7516 16.8604Z" stroke-width="1.5" stroke-linecap="round" stroke-linejoin="round"/>
      <path d="M10.7501 14.11C10.7501 14.61 10.6101 15.07 10.3701 15.47C9.78006 16.44 8.57004 17.05 7.17004 17.05C5.77004 17.05 4.56003 16.43 3.97003 15.47C3.73003 15.07 3.59009 14.61 3.59009 14.11C3.59009 13.25 3.99007 12.48 4.63007 11.92C5.28007 11.35 6.17003 11.01 7.16003 11.01C8.15003 11.01 9.04006 11.36 9.69006 11.92C10.3501 12.47 10.7501 13.25 10.7501 14.11Z" stroke-width="1.5" stroke-linecap="round" stroke-linejoin="round"/>
      <path d="M10.7516 14.11V16.86C10.7516 18.58 9.15158 19.8 7.18158 19.8C5.21158 19.8 3.60156 18.57 3.60156 16.86V14.11C3.60156 12.39 5.20158 11 7.18158 11C8.17158 11 9.06161 11.35 9.71161 11.91C10.3516 12.47 10.7516 13.25 10.7516 14.11Z" stroke-width="1.5" stroke-linecap="round" stroke-linejoin="round"/>
      <path d="M22 10.9699V13.03C22 13.58 21.56 14.0299 21 14.0499H19.0399C17.9599 14.0499 16.97 13.2599 16.88 12.1799C16.82 11.5499 17.0599 10.9599 17.4799 10.5499C17.8499 10.1699 18.36 9.94995 18.92 9.94995H21C21.56 9.96995 22 10.4199 22 10.9699Z" stroke-width="1.5" stroke-linecap="round" stroke-linejoin="round"/>
      <path d="M2 10.5V8.5C2 5.78 3.64 3.88 6.19 3.56C6.45 3.52 6.72 3.5 7 3.5H16C16.26 3.5 16.51 3.50999 16.75 3.54999C19.33 3.84999 21 5.76 21 8.5V9.95001H18.92C18.36 9.95001 17.85 10.17 17.48 10.55C17.06 10.96 16.82 11.55 16.88 12.18C16.97 13.26 17.96 14.05 19.04 14.05H21V15.5C21 18.5 19 20.5 16 20.5H13.5" stroke-width="1.5" stroke-linecap="round" stroke-linejoin="round"/>
    
  </symbol>

  <symbol id="icon5" viewBox="0 0 24 24">
     <path d="M12.765 3.10897L14.355 4.32502C14.7651 4.63862 15.25 4.83949 15.7617 4.9077L17.746 5.17218C18.3094 5.24728 18.7527 5.69055 18.8278 6.25399L19.0923 8.23824C19.1605 8.74993 19.3614 9.23488 19.675 9.64494L20.891 11.235C21.2363 11.6865 21.2363 12.3134 20.891 12.7649L19.675 14.355C19.3614 14.7651 19.1605 15.25 19.0923 15.7617L18.8278 17.746C18.7527 18.3094 18.3094 18.7527 17.746 18.8278L15.7617 19.0923C15.2501 19.1605 14.7651 19.3613 14.355 19.6749L12.765 20.891C12.3134 21.2363 11.6866 21.2363 11.235 20.891L9.64495 19.6749C9.2349 19.3613 8.74995 19.1605 8.23825 19.0923L6.25401 18.8278C5.69056 18.7527 5.2473 18.3094 5.17219 17.746L4.90771 15.7617C4.83951 15.25 4.63863 14.7651 4.32504 14.355L3.10898 12.7649C2.76367 12.3134 2.76367 11.6865 3.10898 11.235L4.32504 9.64494C4.63863 9.23488 4.83951 8.74993 4.90771 8.23824L5.17219 6.25399C5.2473 5.69055 5.69056 5.24728 6.25401 5.17218L8.23825 4.9077C8.74995 4.83949 9.2349 4.63862 9.64495 4.32502L11.235 3.10897C11.6866 2.76366 12.3134 2.76366 12.765 3.10897Z" stroke-width="1.5"/>
    <path d="M14.1092 9.89076L9.89075 14.1092"  stroke-width="1.5" stroke-linecap="round"/>
    <circle cx="9.89079" cy="9.89076" r="1.05461" />
    <circle cx="14.1092" cy="14.1092" r="1.05461" />
    
  </symbol>

  <symbol id="icon6" viewBox="0 0 24 24">
    <path d="M10 9C10 8.60444 10.1173 8.21776 10.3371 7.88886C10.5568 7.55996 10.8692 7.30362 11.2346 7.15224C11.6001 7.00087 12.0022 6.96126 12.3902 7.03843C12.7781 7.1156 13.1345 7.30608 13.4142 7.58579C13.6939 7.86549 13.8844 8.22186 13.9616 8.60982C14.0387 8.99778 13.9991 9.39992 13.8478 9.76537C13.6964 10.1308 13.44 10.4432 13.1111 10.6629C12.7822 10.8827 12.3956 11 12 11V12M14.25 19L12.8 20.9333C12.4 21.4667 11.6 21.4667 11.2 20.9333L9.75 19H7C4.79086 19 3 17.2091 3 15V7C3 4.79086 4.79086 3 7 3H17C19.2091 3 21 4.79086 21 7V15C21 17.2091 19.2091 19 17 19H14.25Z" stroke-width="1.5" stroke-linecap="round" stroke-linejoin="round"/>
    <circle cx="12" cy="15" r="1"/>
  </symbol>

</svg>


